<svg width="8" height="8" viewBox="0 0 8 8" fill="none" xmlns="http://www.w3.org/2000/svg">
<path d="M4 0C4.36804 6.55429e-06 4.66674 0.298038 4.66699 0.666016V3.33301H7.33301C7.70121 3.33301 8 3.6318 8 4C7.99988 4.3681 7.70114 4.66602 7.33301 4.66602H4.66699V7.33301C4.66699 7.7012 4.36819 7.99999 4 8C3.6318 8 3.33301 7.70121 3.33301 7.33301V4.66602H0.666992C0.298865 4.66602 0.000115602 4.3681 0 4C0 3.6318 0.298793 3.33301 0.666992 3.33301H3.33301V0.666016C3.33326 0.298033 3.63196 -1.60876e-08 4 0Z" fill="#B3B1B1"/>
</svg>
