<svg width="8" height="8" viewBox="0 0 8 8" fill="none" xmlns="http://www.w3.org/2000/svg">
<path d="M4 0C4.36818 8.84223e-06 4.66699 0.298808 4.66699 0.666992V3.33301H7.33301C7.7012 3.33301 8 3.63181 8 4C7.99993 4.36813 7.70115 4.66699 7.33301 4.66699H4.66699V7.33301C4.66699 7.70119 4.36818 7.99999 4 8C3.63181 8 3.33301 7.7012 3.33301 7.33301V4.66699H0.666992C0.298846 4.66699 7.04071e-05 4.36813 0 4C0 3.63181 0.298802 3.33301 0.666992 3.33301H3.33301V0.666992C3.33301 0.298802 3.63181 -1.60941e-08 4 0Z" fill="#B3B1B1"/>
</svg>
