<svg width="18" height="15" viewBox="0 0 18 15" fill="none" xmlns="http://www.w3.org/2000/svg">
<path d="M1 8.36377C0.447715 8.36377 0 7.91605 0 7.36377C0 6.81148 0.447715 6.36377 1 6.36377L1 7.36377L1 8.36377ZM16.7659 6.65666C17.1565 7.04719 17.1565 7.68035 16.7659 8.07088L10.402 14.4348C10.0114 14.8254 9.37828 14.8254 8.98775 14.4348C8.59723 14.0443 8.59723 13.4111 8.98775 13.0206L14.6446 7.36377L8.98775 1.70692C8.59723 1.31639 8.59723 0.683226 8.98775 0.292702C9.37828 -0.0978227 10.0114 -0.0978227 10.402 0.292702L16.7659 6.65666ZM1 7.36377L1 6.36377L16.0588 6.36377V7.36377V8.36377L1 8.36377L1 7.36377Z" fill="#D9D9D9"/>
</svg>
