<svg width="18" height="15" viewBox="0 0 18 15" fill="none" xmlns="http://www.w3.org/2000/svg">
<path d="M16.0588 8.36377C16.6111 8.36377 17.0588 7.91605 17.0588 7.36377C17.0588 6.81148 16.6111 6.36377 16.0588 6.36377V7.36377V8.36377ZM0.292909 6.65666C-0.0976162 7.04719 -0.0976162 7.68035 0.292909 8.07088L6.65687 14.4348C7.04739 14.8254 7.68056 14.8254 8.07108 14.4348C8.46161 14.0443 8.46161 13.4111 8.07108 13.0206L2.41423 7.36377L8.07108 1.70692C8.46161 1.31639 8.46161 0.683226 8.07108 0.292702C7.68056 -0.0978227 7.04739 -0.0978227 6.65687 0.292702L0.292909 6.65666ZM16.0588 7.36377V6.36377L1.00002 6.36377V7.36377V8.36377L16.0588 8.36377V7.36377Z" fill="#D9D9D9"/>
</svg>
