<svg width="12" height="12" viewBox="0 0 12 12" fill="none" xmlns="http://www.w3.org/2000/svg">
<path d="M0.366106 0.366133C0.854253 -0.121894 1.64577 -0.121968 2.13387 0.366133L5.66941 3.90167L9.20425 0.366823C9.69239 -0.121315 10.4839 -0.121315 10.972 0.366823C11.4598 0.854986 11.4601 1.64655 10.972 2.13459L7.43717 5.66943L10.972 9.20428C11.4601 9.69238 11.46 10.4839 10.972 10.972C10.4839 11.4602 9.69239 11.4602 9.20425 10.972L5.66941 7.4372L2.13387 10.9727C1.64584 11.4608 0.854268 11.4606 0.366106 10.9727C-0.122032 10.4846 -0.122032 9.69311 0.366106 9.20497L3.90164 5.66943L0.366106 2.1339C-0.122032 1.64576 -0.122032 0.854271 0.366106 0.366133Z" fill="#B3B1B1"/>
</svg>
