<svg width="7" height="7" viewBox="0 0 7 7" fill="none" xmlns="http://www.w3.org/2000/svg">
<path d="M5.43122 0.181218C5.67284 -0.0604061 6.06459 -0.0604061 6.30622 0.181218C6.54748 0.422872 6.54772 0.814714 6.30622 1.05622L4.11872 3.24372L6.30622 5.43122C6.54742 5.67288 6.5477 6.06473 6.30622 6.30622C6.06473 6.5477 5.67288 6.54742 5.43122 6.30622L3.24372 4.11872L1.05622 6.30622C0.81471 6.54766 0.422852 6.54746 0.181218 6.30622C-0.0603856 6.06461 -0.0603447 5.67285 0.181218 5.43122L2.36872 3.24372L0.181218 1.05622C-0.0604061 0.814594 -0.0604061 0.422843 0.181218 0.181218C0.422843 -0.0604061 0.814594 -0.0604061 1.05622 0.181218L3.24372 2.36872L5.43122 0.181218Z" fill="#D9D9D9"/>
</svg>
