<svg width="15" height="15" viewBox="0 0 15 15" fill="none" xmlns="http://www.w3.org/2000/svg">
<path fill-rule="evenodd" clip-rule="evenodd" d="M12.5577 0.41901C13.1164 -0.13967 14.0224 -0.13967 14.5811 0.41901C15.1398 0.977693 15.1398 1.88378 14.5811 2.44245L9.52253 7.50006L14.5811 12.5577C15.1397 13.1163 15.1397 14.0224 14.5811 14.5811C14.0225 15.1398 13.1164 15.1398 12.5577 14.5811L7.50006 9.5235L2.44245 14.5811C1.88378 15.1398 0.977693 15.1398 0.41901 14.5811C-0.13967 14.0224 -0.13967 13.1164 0.41901 12.5577L5.47663 7.50006L0.41901 2.44245C-0.13967 1.88377 -0.13967 0.97769 0.41901 0.41901C0.977645 -0.139515 1.88281 -0.139478 2.44147 0.41901L7.49909 5.47663L12.5577 0.41901Z" fill="#D9D9D9"/>
</svg>
