<svg width="10" height="17" viewBox="0 0 10 17" fill="none" xmlns="http://www.w3.org/2000/svg">
<path d="M9.5 15.9961C9.77614 15.9961 10 16.22 10 16.4961C10 16.7722 9.77614 16.9961 9.5 16.9961H0.5C0.223858 16.9961 0 16.7722 0 16.4961C0 16.22 0.223858 15.9961 0.5 15.9961H9.5ZM5 0C5.27607 0 5.49989 0.223952 5.5 0.5V11.9824L7.82812 9.65332C8.02325 9.45831 8.33989 9.45854 8.53516 9.65332C8.73038 9.84855 8.73031 10.1651 8.53516 10.3604L5.35352 13.543C5.15829 13.738 4.84171 13.738 4.64648 13.543L1.46484 10.3604C1.26969 10.1651 1.26962 9.84855 1.46484 9.65332C1.66011 9.45854 1.97675 9.45831 2.17188 9.65332L4.5 11.9824V0.5C4.50011 0.223952 4.72393 0 5 0Z" fill="#D9D9D9"/>
</svg>
