<svg width="17" height="17" viewBox="0 0 17 17" fill="none" xmlns="http://www.w3.org/2000/svg">
<mask id="path-1-inside-1_155_28" fill="white">
<path d="M7.5 0C8.70949 0 9.71858 0.85886 9.9502 2H13C14.1046 2 15 2.89543 15 4V7.0498C16.1411 7.28142 17 8.29051 17 9.5C17 10.7094 16.141 11.7175 15 11.9492V15C15 16.1046 14.1046 17 13 17H2C0.895431 17 5.63733e-08 16.1046 0 15V12.9639C0.163332 12.9872 0.330206 13 0.5 13C2.433 13 4 11.433 4 9.5C4 7.567 2.433 6 0.5 6C0.330253 6 0.163289 6.0118 0 6.03516V4C0 2.89543 0.895431 2 2 2H5.0498C5.28142 0.85886 6.29051 0 7.5 0Z"/>
</mask>
<path d="M9.9502 2L8.97018 2.19892L9.13278 3H9.9502V2ZM15 4H16V4H15ZM15 7.0498H14V7.86722L14.8011 8.02982L15 7.0498ZM15 11.9492L14.801 10.9692L14 11.1319V11.9492H15ZM13 17V18V18V17ZM0 15H-1V15H0ZM0 12.9639L0.141625 11.9739L-1 11.8106V12.9639H0ZM0 6.03516H-1V7.18836L0.141586 7.02508L0 6.03516ZM2 2V1V1V2ZM5.0498 2V3H5.86722L6.02982 2.19892L5.0498 2ZM7.5 0V1C8.22465 1 8.83132 1.51477 8.97018 2.19892L9.9502 2L10.9302 1.80108C10.6058 0.20295 9.19433 -1 7.5 -1V0ZM9.9502 2V3H13V2V1H9.9502V2ZM13 2V3C13.5523 3 14 3.44772 14 4H15H16C16 2.34315 14.6569 1 13 1V2ZM15 4H14V7.0498H15H16V4H15ZM15 7.0498L14.8011 8.02982C15.4852 8.16868 16 8.77535 16 9.5H17H18C18 7.80567 16.7971 6.39417 15.1989 6.06979L15 7.0498ZM17 9.5H16C16 10.224 15.4857 10.8302 14.801 10.9692L15 11.9492L15.199 12.9292C16.7964 12.6049 18 11.1948 18 9.5H17ZM15 11.9492H14V15H15H16V11.9492H15ZM15 15H14C14 15.5523 13.5523 16 13 16V17V18C14.6569 18 16 16.6569 16 15H15ZM13 17V16H2V17V18H13V17ZM2 17V16C1.44772 16 1 15.5523 1 15H0H-1C-1 16.6569 0.343146 18 2 18V17ZM0 15H1V12.9639H0H-1V15H0ZM0 12.9639L-0.141625 13.9538C0.06574 13.9835 0.279998 14 0.5 14V13V12C0.380414 12 0.260924 11.991 0.141625 11.9739L0 12.9639ZM0.5 13V14C2.98528 14 5 11.9853 5 9.5H4H3C3 10.8807 1.88071 12 0.5 12V13ZM4 9.5H5C5 7.01472 2.98528 5 0.5 5V6V7C1.88071 7 3 8.11929 3 9.5H4ZM0.5 6V5C0.283876 5 0.069577 5.01503 -0.141586 5.04523L0 6.03516L0.141586 7.02508C0.257 7.00857 0.37663 7 0.5 7V6ZM0 6.03516H1V4H0H-1V6.03516H0ZM0 4H1C1 3.44772 1.44772 3 2 3V2V1C0.343146 1 -1 2.34315 -1 4H0ZM2 2V3H5.0498V2V1H2V2ZM5.0498 2L6.02982 2.19892C6.16868 1.51477 6.77535 1 7.5 1V0V-1C5.80567 -1 4.39417 0.20295 4.06979 1.80108L5.0498 2Z" fill="white" mask="url(#path-1-inside-1_155_28)"/>
</svg>
