<svg width="14" height="15" viewBox="0 0 14 15" fill="none" xmlns="http://www.w3.org/2000/svg">
<path fill-rule="evenodd" clip-rule="evenodd" d="M13.0118 6.32745C13.1388 6.45314 13.0498 6.6696 12.8711 6.6696H12.3622C12.2517 6.6696 12.1622 6.75914 12.1622 6.8696V14.3466C12.1622 14.457 12.0726 14.5466 11.9622 14.5466H8.98621C8.87576 14.5466 8.78621 14.457 8.78621 14.3466V10.2456C8.78621 10.1351 8.69667 10.0456 8.58622 10.0456H4.48524C4.37478 10.0456 4.28524 10.1351 4.28524 10.2456V14.3466C4.28524 14.457 4.1957 14.5466 4.08524 14.5466H1.10926C0.998805 14.5466 0.909262 14.457 0.909262 14.3466V6.8696C0.909262 6.75914 0.819719 6.6696 0.709262 6.6696H0.200401C0.0217136 6.6696 -0.0672885 6.45312 0.0597248 6.32744L6.39553 0.0578379C6.47346 -0.0192831 6.59896 -0.0192788 6.67689 0.0578479L13.0118 6.32745Z" fill="#D9D9D9"/>
</svg>
