<svg width="18" height="17" viewBox="0 0 18 17" fill="none" xmlns="http://www.w3.org/2000/svg">
<path d="M15.4821 11.27C13.716 15.3623 8.96685 17.2479 4.87454 15.4819C0.782252 13.7157 -1.10346 8.96666 0.662732 4.87428C2.42897 0.78206 7.17807 -1.10366 11.2703 0.662473C12.9597 1.39165 14.2702 2.63146 15.1056 4.12056L15.3652 3.51892C15.5841 3.01204 16.1727 2.77844 16.6796 2.99703C17.1867 3.21586 17.4203 3.80438 17.2015 4.31143L15.9563 7.19676C15.7374 7.70374 15.1489 7.93747 14.6419 7.71865L11.7565 6.47339C11.2498 6.25442 11.016 5.6659 11.2346 5.159C11.4535 4.65217 12.0421 4.41861 12.549 4.63711L13.2789 4.9521C12.6478 3.89667 11.6925 3.02304 10.4778 2.49876C7.3997 1.17031 3.82756 2.58872 2.49902 5.66679C1.17052 8.745 2.58889 12.3171 5.66705 13.6456C8.74521 14.9739 12.3174 13.5557 13.6458 10.4775C13.8647 9.97058 14.4532 9.73683 14.9602 9.95565C15.4672 10.1745 15.7008 10.763 15.4821 11.27Z" fill="#D9D9D9"/>
</svg>
