<svg width="37" height="30" viewBox="0 0 37 30" fill="none" xmlns="http://www.w3.org/2000/svg">
<path d="M12.4941 0C19.3942 0.000159257 24.9873 5.59408 24.9873 12.4941C24.9873 14.3144 24.5944 16.0419 23.8945 17.6016L36.3418 27.6436L34.4404 30L22.3115 20.2158C20.0239 23.1203 16.4783 24.9872 12.4941 24.9873C5.59408 24.9873 0.000159261 19.3942 0 12.4941C0 5.59398 5.59398 0 12.4941 0ZM12.4941 2.85352C7.16993 2.85352 2.85352 7.16993 2.85352 12.4941C2.85367 17.8182 7.17003 22.1338 12.4941 22.1338C17.8181 22.1336 22.1336 17.8181 22.1338 12.4941C22.1338 7.17003 17.8182 2.85367 12.4941 2.85352Z" fill="#D9D9D9" fill-opacity="0.76"/>
</svg>
