<svg width="17" height="17" viewBox="0 0 17 17" fill="none" xmlns="http://www.w3.org/2000/svg">
<path fill-rule="evenodd" clip-rule="evenodd" d="M6.90153 1.2531C7.27905 -0.417668 9.65983 -0.417734 10.0373 1.2531C10.2819 2.33602 11.5243 2.85075 12.4631 2.25799C13.9114 1.34346 15.5945 3.02739 14.6798 4.47576C14.0876 5.4143 14.6022 6.65678 15.6847 6.90154C17.3556 7.27897 17.3556 9.65985 15.6847 10.0373C14.6022 10.2821 14.0873 11.5245 14.6798 12.4631C15.5945 13.9115 13.9114 15.5945 12.4631 14.6799C11.5245 14.0873 10.2821 14.6022 10.0373 15.6847C9.65984 17.3556 7.27896 17.3556 6.90153 15.6847C6.65677 14.6022 5.4143 14.0876 4.47575 14.6799C3.02739 15.5945 1.34347 13.9114 2.25797 12.4631C2.85074 11.5244 2.33601 10.2819 1.25309 10.0373C-0.417733 9.65984 -0.417662 7.27907 1.25309 6.90154C2.33591 6.65695 2.85048 5.41443 2.25797 4.47576C1.34335 3.02737 3.02736 1.34336 4.47575 2.25799C5.41442 2.85049 6.65694 2.33592 6.90153 1.2531ZM8.46989 3.93963C5.96793 3.93973 3.93972 5.96795 3.93962 8.4699C3.93988 10.9717 5.96803 13.0001 8.46989 13.0002C10.9716 12.9999 12.9999 10.9716 13.0002 8.4699C13.0001 5.96804 10.9717 3.93989 8.46989 3.93963Z" fill="#D9D9D9"/>
</svg>
